<svg width="375" height="63" viewBox="0 0 375 63" fill="none" xmlns="http://www.w3.org/2000/svg">
<g>
<path d="M41.201 12.1276V4.23865H9.14303C9.14303 4.23865 -0.132973 4.04965 -0.132973 12.2536V39.8936C-0.132973 39.8936 -0.447973 47.7826 9.20703 47.7826H42.527V21.6566H22.648V29.4816H32.871V39.8316H9.39603V12.1276H41.201V12.1276ZM79.696 13.7676C79.696 13.7676 83.797 13.4526 86.827 16.2296C86.827 16.2296 88.847 18.2496 89.035 20.5846V40.4626C89.035 40.4626 89.16 43.7446 87.269 45.3846C85.376 47.0256 83.987 47.2776 82.473 47.5306L79.254 47.7196H55.779C55.779 47.7196 51.362 47.9726 48.838 45.9536C46.251 43.9336 46.44 40.9056 46.44 40.9056V21.2156C46.44 21.2156 46.187 18.3756 48.838 16.1036C48.838 16.1036 50.794 13.8956 54.77 13.7056H79.698L79.696 13.7676ZM56.219 39.7686H79.443V21.5926H56.219V39.7686ZM93.075 4.23865H98.376L125.827 32.3216V4.23865H135.482V47.7186H130.118L102.73 19.6366V47.7186H93.075V4.23865ZM139.521 13.7676H173.409C173.409 13.7676 181.424 13.7676 182.118 20.7086V47.7186H148.356C148.356 47.7186 140.216 47.9076 139.585 40.8406V33.8996C139.585 33.8996 139.332 28.0936 147.032 26.8946C147.032 26.8946 147.726 26.8316 148.673 26.8316H172.527V21.5946H139.649V13.7686H139.522V13.7676H139.521V13.7676ZM172.4 34.7196H149.176V39.8316H172.4V34.7196ZM195.812 4.49165V13.7676H204.141V21.5926H195.812V39.7666H204.141V47.7176H195.117C195.117 47.7176 190.509 47.8426 187.986 45.0676C187.986 45.0676 186.093 43.3636 186.156 40.9016V4.49065L195.812 4.49165V4.49165ZM208.18 13.7676H217.71V47.7186H208.18V13.7676ZM255.005 13.7676C255.005 13.7676 259.108 13.4526 262.136 16.2296C262.136 16.2296 264.156 18.2496 264.344 20.5846V40.4626C264.344 40.4626 264.469 43.7446 262.578 45.3846C260.685 47.0256 259.296 47.2776 257.782 47.5306L254.563 47.7196H231.087C231.087 47.7196 226.669 47.9726 224.146 45.9536C221.559 43.9976 221.748 40.9056 221.748 40.9056V21.2156C221.748 21.2156 221.495 18.3756 224.146 16.1036C224.146 16.1036 226.102 13.9576 230.078 13.7056H255.006V13.7676H255.005V13.7676ZM231.467 39.7686H254.691V21.5926H231.467V39.7686ZM299.621 13.7676C299.621 13.7676 304.417 13.6426 306.626 15.8506C308.834 17.9966 308.582 20.3306 308.646 21.2146V47.7826H298.928V21.6566H277.977V47.7826H268.322V20.5226C268.322 20.5226 267.817 14.2116 276.589 13.8336H299.623L299.621 13.7676V13.7676Z" fill="white"/>
<path d="M339.643 49.888L347.289 41.034L356.254 46.318L358.492 62.294L366.704 61.344L363.94 41.516L353.552 35.415L355.82 23.891L358.44 28.739L371.364 29.996C371.364 29.996 374.123 30.336 374.851 27.521L374.888 27.105C374.906 24.132 372.022 23.889 372.022 23.889L362.52 22.968L357.782 13.966L337.853 13.979L330.748 24.41C330.616 24.601 329.338 26.772 331.352 28.437L331.804 28.72C331.941 28.829 334.384 30.085 336.101 27.77L341.327 20.097H343.661L340.578 34.925L335.552 42.699L319.166 47.433L320.647 54.775L339.643 49.888V49.888ZM353.875 0C350.36 0 347.514 2.729 347.514 6.101C347.514 9.473 350.36 12.21 353.875 12.21C357.39 12.21 360.244 9.473 360.244 6.101C360.243 2.738 357.388 0 353.875 0Z" fill="white"/>
</g>
</svg>
