<svg width="612" height="144" viewBox="18 250 612 144" fill="none" xmlns="http://www.w3.org/2000/svg">
<path d="M279.1 321.802V321.602C279.1 306.002 290.1 293.202 305.7 293.202C323 293.202 331.8 306.802 331.8 322.502C331.8 323.602 331.7 324.802 331.6 326.002H291.6C292.9 334.902 299.2 339.802 307.3 339.802C313.4 339.802 317.7 337.502 322.1 333.302L329.4 339.802C324.1 346.002 317 350.002 307 350.002C291.2 350.002 279.1 338.602 279.1 321.802ZM319.4 317.802C318.6 309.802 313.8 303.502 305.6 303.502C298 303.502 292.6 309.402 291.5 317.802H319.4ZM378.2 321.802V321.602C378.2 306.002 389.2 293.202 404.8 293.202C422.1 293.202 430.9 306.802 430.9 322.502C430.9 323.602 430.8 324.802 430.7 326.002H390.7C392 334.902 398.3 339.802 406.4 339.802C412.5 339.802 416.8 337.502 421.2 333.302L428.5 339.802C423.3 346.002 416.2 350.002 406.2 350.002C390.4 350.002 378.2 338.602 378.2 321.802ZM418.5 317.802C417.7 309.802 412.9 303.502 404.7 303.502C397.1 303.502 391.7 309.402 390.6 317.802H418.5ZM437.9 321.702V321.502C437.9 303.502 450.2 293.302 463.2 293.302C475.4 293.302 481.1 300.002 481.8 300.602V273.602H494.3V348.802H481.8V342.502C480.8 343.502 475.2 349.902 463.2 349.902C450.4 349.902 437.9 339.702 437.9 321.702ZM482 321.702V321.502C482 311.002 474.6 304.102 466.2 304.102C457.6 304.102 450.5 310.702 450.5 321.502V321.702C450.5 332.202 457.7 339.102 466.2 339.102C474.5 339.102 482 332.102 482 321.702ZM561.4 349.902C545.4 349.902 536.5 344.902 536.5 329.602V273.602H549V294.302H561.4V305.002H549V328.302C549 338.302 554.9 339.102 561.4 339.102V349.902ZM572.4 273.602H584.9V300.602C585.6 299.702 590.4 293.202 600.5 293.202C613.6 293.202 621.3 301.902 621.3 314.102V348.802H608.8V318.002C608.8 309.802 604.3 304.602 596.8 304.602C589.6 304.602 584.8 309.602 584.8 318.002V348.802H572.3L572.4 273.602Z" fill="white"/>
<path d="M509.2 294.398H521.6V335.098V348.798H509.2V294.398Z" fill="white"/>
<path d="M521.5 281.102V285.902H509.2V273.602H521.5V281.102Z" fill="white"/>
<path d="M186.5 294.401H199V300.901C199.6 300.201 205.1 293.301 215.1 293.301C226.4 293.301 230.5 300.301 231.8 302.901C232.7 301.401 238 293.301 249 293.301C260.9 293.301 269.4 302.001 269.4 314.101V348.901H256.9V318.001C256.9 309.701 252.6 304.601 245.6 304.601C238.8 304.601 234.3 309.501 234.3 318.001V348.801H221.8V318.001C221.8 309.501 217.4 304.601 210.5 304.601C203.6 304.601 199.2 309.601 199.2 318.001V348.801H186.7L186.5 294.401ZM342.2 294.401H354.7V303.201C355.8 301.401 360 293.301 374 293.301V306.101H371.3C360.5 306.101 354.7 313.001 354.7 323.201V348.801H342.2V294.401Z" fill="white"/>
<path d="M81.1956 275.456L67.1243 289.527L76.1044 298.508L90.1757 284.436L81.1956 275.456Z" fill="white"/>
<path d="M113.3 335.702L122.3 344.702L136.4 330.602L127.4 321.602L113.3 335.702Z" fill="white"/>
<path d="M106.4 268.2C110.4 264.2 116.6 264.3 120.5 268.2C124.6 272.3 124.2 278.6 120.5 282.3L113.3 289.5L122.3 298.5L129.5 291.3C133.9 286.9 140.2 287.9 143.6 291.3C147.9 295.6 147.1 301.9 143.6 305.4L136.4 312.6L145.4 321.6L152.6 314.4C161.7 305.3 161.3 291 152.6 282.3C146.6 276.3 139.5 275.6 136.2 275.7C136.3 272.4 135.5 265.2 129.6 259.3C121.1 250.8 106.7 250.1 97.5 259.3L90.3 266.5L99.3 275.5L106.4 268.2Z" fill="white"/>
<path d="M90.2 312.6L99.2 321.6L113.3 307.5L104.3 298.5L90.2 312.6Z" fill="white"/>
<path d="M67.1 353.699L81.2 367.699L90.2 358.699L76.1 344.699L67.1 353.699Z" fill="white"/>
<path d="M145.4 321.602L136.4 330.602L143.6 337.802C147.1 341.302 147.9 347.602 143.6 351.902C140.2 355.302 133.9 356.302 129.5 351.902L122.3 344.702L113.3 353.702L120.5 360.902C124.2 364.602 124.6 370.902 120.5 375.002C116.6 378.902 110.4 379.002 106.4 375.002L99.2 367.802L90.2 376.802L97.4 384.002C106.6 393.202 121 392.502 129.5 384.002C135.5 378.002 136.3 370.902 136.1 367.602C139.4 367.702 146.5 367.002 152.5 361.002C161.2 352.302 161.6 338.002 152.5 328.902L145.4 321.602Z" fill="white"/>
<path d="M90.2 330.602L104.3 344.702L113.3 335.702L99.2 321.602L90.2 330.602Z" fill="white"/>
<path d="M122.3 298.5L113.3 307.5L127.4 321.6L136.4 312.6L122.3 298.5Z" fill="white"/>
<path d="M104.267 344.644L90.1957 358.715L99.1759 367.695L113.247 353.624L104.267 344.644Z" fill="white"/>
<path d="M74 374.9C70.5 378.4 64.2 379.2 59.9 374.9C56.5 371.5 55.5 365.2 59.9 360.8L67.1 353.6L58.1 344.6L50.9 351.8C47.2 355.5 40.9 355.9 36.8 351.8C32.9 347.9 32.8 341.7 36.8 337.7L44 330.5L35 321.5L27.8 328.7C18.6 337.9 19.3 352.3 27.8 360.8C33.8 366.8 40.9 367.6 44.2 367.4C44.1 370.7 44.8 377.8 50.8 383.8C59.5 392.5 73.8 392.9 82.9 383.8L90.1 376.6L81.1 367.6L74 374.9Z" fill="white"/>
<path d="M81.2 321.602L67.1 335.702L76.1 344.702L90.2 330.602L81.2 321.602Z" fill="white"/>
<path d="M58.2 298.5L44.1 312.6L53.1 321.6L67.1 307.5L58.2 298.5Z" fill="white"/>
<path d="M67.1 335.702L53.1 321.602L44.1 330.602L58.2 344.702L67.1 335.702Z" fill="white"/>
<path d="M36.9 305.399C32.9 301.399 33 295.199 36.9 291.299C41 287.199 47.3 287.599 51 291.299L58.2 298.499L67.2 289.499L60 282.299C55.6 277.899 56.6 271.599 60 268.199C64.3 263.899 70.6 264.699 74.1 268.199L81.3 275.399L90.3 266.399L83.1 259.199C74 250.099 59.7 250.499 51 259.199C45 265.199 44.3 272.299 44.4 275.599C41.1 275.499 33.9 276.299 28 282.199C19.5 290.699 18.8 305.099 28 314.299L35.2 321.499L44.2 312.499L36.9 305.399Z" fill="white"/>
<path d="M99.1992 275.438L90.219 284.418L104.29 298.489L113.27 289.509L99.1992 275.438Z" fill="white"/>
<path d="M81.2 321.6L90.2 312.6L76.1 298.5L67.1 307.5L81.2 321.6Z" fill="white"/>
<path d="M90.2664 266.45L81.2863 275.43L90.2664 284.41L99.2466 275.43L90.2664 266.45Z" fill="white"/>
<path d="M44.0316 312.594L35.0514 321.574L44.0315 330.554L53.0117 321.574L44.0316 312.594Z" fill="white"/>
<path d="M136.333 312.614L127.353 321.594L136.333 330.574L145.314 321.594L136.333 312.614Z" fill="white"/>
<path d="M90.241 358.742L81.2609 367.723L90.241 376.703L99.2212 367.723L90.241 358.742Z" fill="white"/>
<path d="M113.228 289.528L104.248 298.508L113.228 307.488L122.208 298.508L113.228 289.528Z" fill="white"/>
<path d="M67.1451 335.66L58.1649 344.641L67.1451 353.621L76.1253 344.641L67.1451 335.66Z" fill="white"/>
<path d="M67.1076 289.485L58.1274 298.465L67.1076 307.445L76.0878 298.465L67.1076 289.485Z" fill="white"/>
<path d="M90.2161 312.559L81.236 321.539L90.2161 330.519L99.1963 321.539L90.2161 312.559Z" fill="white"/>
<path d="M113.328 335.649L104.347 344.629L113.328 353.609L122.308 344.629L113.328 335.649Z" fill="white"/>
</svg>
