<?xml version="1.0" encoding="UTF-8"?>
<svg xmlns="http://www.w3.org/2000/svg" width="240" height="66" viewBox="0 0 240 66" fill="none">
  <g>
    <path d="M80.9888 4.95375C80.9214 4.53025 80.6393 4.08387 80.3354 3.76224C78.7636 2.09573 76.7828 1.12398 74.5919 0.5597C73.7237 0.336507 72.8361 0.184278 71.9577 0H68.4417C68.2566 0.0618074 68.075 0.154518 67.8842 0.181988C64.4836 0.670725 61.5936 2.09458 59.3489 4.75116C59.1285 5.01212 58.7481 5.2067 58.4077 5.28911C55.2606 6.04682 52.35 7.27267 49.9374 9.49201C49.4154 9.97274 48.9722 10.5393 48.3782 11.1917C48.9448 11.2306 49.2875 11.2718 49.6313 11.2753C53.642 11.3245 57.6526 11.3565 61.6621 11.4229C62.3532 11.4344 63.1025 11.4355 63.7194 11.6942C65.2615 12.3409 66.3913 13.5381 67.5141 14.8784C51.2328 26.0816 35.0075 37.2458 18.7821 48.4101C18.805 48.4902 18.8278 48.5703 18.8518 48.6516H26.7303C26.7406 48.718 26.7509 48.7832 26.7623 48.8496C17.842 54.0735 8.92175 59.2985 0.00146484 64.5223C3.54833 64.3289 7.00495 63.9409 10.4604 63.5426C15.2844 62.9852 20.1061 62.4175 24.93 61.8589C29.8111 61.2935 34.6945 60.7349 39.5756 60.1706C43.2949 59.7403 47.012 59.2939 50.7348 58.891C51.2031 58.8406 51.7526 58.8887 52.1661 59.0925C56.2853 61.1138 60.3839 63.1763 64.4882 65.2286C65.0011 65.4849 65.5094 65.7505 65.9983 66.0011C66.1377 65.8535 66.2096 65.7986 66.2542 65.7264C66.59 65.1782 66.9236 64.6276 67.2503 64.0737C71.9988 56.0078 76.6332 47.8824 80.4428 39.3175C82.1745 35.4248 83.5967 31.484 83.4413 27.09C83.1786 19.6444 82.1505 12.2951 80.9899 4.95604L80.9888 4.95375Z" fill="#1A2121"></path>
    <path d="M239.809 32.3997C239.226 29.0998 237.826 26.2819 234.982 24.3544C231.136 21.7471 225.591 21.8249 221.541 24.5032C221.161 24.755 220.785 25.0137 220.26 25.3685V23.3392H213.786V49.7698H220.285V32.1502C221.616 30.5981 223.105 29.3585 225.033 28.7279C227.822 27.8156 230.861 28.721 232.321 30.9255C233.224 32.2875 233.524 33.8258 233.524 35.4362C233.524 39.8887 233.524 44.3422 233.524 48.7947V49.9175H240V33.0441C239.936 32.8289 239.848 32.6194 239.809 32.3997Z" fill="#1A2121"></path>
    <path d="M239.123 61.6414H235.196V58.3794C234.868 58.408 234.628 58.4297 234.396 58.4503V65.8695C234.691 65.8523 234.929 65.8386 235.268 65.818V62.5811H239.166V65.8249C239.49 65.8581 239.744 65.8855 240 65.9119V58.3542C239.744 58.3805 239.488 58.4068 239.123 58.4458V61.6414Z" fill="#1A2121"></path>
    <path d="M138.602 24.969C131.658 20.7867 124.423 22.8241 120.688 27.2044C116.419 32.2096 116.054 39.488 119.861 44.8596C121.592 47.3021 123.891 49.0293 126.767 49.8625C130.919 51.0655 134.855 50.4177 138.589 48.1273C138.631 48.7351 138.668 49.2456 138.705 49.7698H145.129V23.3403H138.689C138.659 23.9 138.633 24.3899 138.603 24.969H138.602ZM131.791 44.8882C127.12 44.8962 123.417 41.237 123.392 36.59C123.367 31.9212 127.112 28.1498 131.772 28.1533C136.355 28.1555 140.158 31.9487 140.169 36.527C140.18 41.1236 136.416 44.8802 131.792 44.8882H131.791Z" fill="#1A2121"></path>
    <path d="M204.367 26.5234C199.988 21.8741 192.719 21.7047 187.738 24.4872C183.545 26.8301 181.458 30.5741 181.036 35.2726C180.546 40.7345 182.911 46.4735 188.563 49.0499C192.622 50.8995 196.788 50.9293 200.934 49.3303C203.501 48.3403 205.515 46.6463 206.802 44.1717C207.074 43.6486 207.275 43.0889 207.545 42.464H200.673C198.376 45.2659 195.43 45.2842 192.388 44.4624C189.768 43.7551 188.272 41.8562 187.538 39.1229H207.982C207.982 37.7529 208.043 36.4984 207.971 35.2531C207.779 31.9361 206.676 28.9751 204.367 26.5234ZM187.6 34.2493C187.824 31.6351 190.267 28.2014 194.655 28.222C198.366 28.2391 201.135 30.6599 201.328 34.2493H187.6Z" fill="#1A2121"></path>
    <path d="M164.553 41.4808C161.766 35.2623 159.081 29.2727 156.403 23.2968H149.455C153.57 32.2234 157.624 41.0195 161.669 49.7939H167.444C171.508 40.9714 175.556 32.1868 179.642 23.3174H172.755C170.038 29.3322 167.334 35.3195 164.552 41.4808H164.553Z" fill="#1A2121"></path>
    <path d="M104.561 26.5841V23.3415H98.1255V49.7813H104.574V33.3932C107.091 30.3051 110.398 29.1445 114.116 28.9247V22.839C110.454 22.768 107.346 23.9847 104.56 26.5841H104.561Z" fill="#1A2121"></path>
    <path d="M173.768 61.63H169.861V58.3897C169.543 58.4069 169.323 58.4183 169.069 58.432V65.8821C169.37 65.8569 169.61 65.8363 169.926 65.81V62.5731H173.808V65.8249H174.655V58.3805C174.345 58.408 174.103 58.4297 173.768 58.4595V61.6288V61.63Z" fill="#1A2121"></path>
    <path d="M184.311 65.0237V62.4987H187.825C187.842 62.2114 187.856 62.0008 187.874 61.6975H184.302V59.2115H188.041V58.4435H183.409V65.8329H188.099C188.085 65.5628 188.074 65.3476 188.057 65.0225H184.311V65.0237Z" fill="#1A2121"></path>
    <path d="M198.724 58.3485C197.699 60.8219 196.675 63.2942 195.619 65.8421H196.565C196.856 65.1793 197.135 64.5487 197.391 63.9684H200.536C200.819 64.6288 201.083 65.2412 201.34 65.8421H202.165C201.896 64.2786 199.366 58.6232 198.724 58.3485ZM200.171 62.9909H197.753C198.145 62.0249 198.521 61.1012 198.96 60.0184C199.412 61.1264 199.77 62.0077 200.171 62.9909Z" fill="#1A2121"></path>
    <path d="M221.044 58.4412C221.071 58.7205 221.091 58.9357 221.12 59.2264H223.35V65.8318H224.206V59.1714H226.571C226.532 58.8555 226.506 58.6415 226.482 58.4412H221.044Z" fill="#1A2121"></path>
    <path d="M210.977 65.042V58.3679C210.634 58.4045 210.395 58.4297 210.174 58.4526V65.8203H214.789C214.755 65.5353 214.73 65.3213 214.697 65.042H210.977Z" fill="#1A2121"></path>
  </g>

</svg>
