<svg width="2427" height="1004" viewBox="0 0 2427 1004" fill="none" xmlns="http://www.w3.org/2000/svg">
<path d="M1220.7 109.506C1237.21 110.278 1252.97 116.582 1265.46 127.404C1282.48 143.513 1286.94 170.373 1278.89 191.864C1247.58 256.311 1173.12 299.357 1122.24 313.598C1091.8 320.758 1053.32 320.758 1025.56 310.019C1012.12 318.073 1000.79 344.103 984.381 333.286C960.633 314.74 981.191 285.713 967.481 265.117C964.654 260.876 957.534 260.565 953.954 253.626C935.148 212.447 958.429 173.058 984.381 141.736C1027.65 93.4624 1151.78 39.6768 1220.7 109.506ZM1076.58 141.723C1052.41 146.198 1025.11 156.716 1010.35 173.953C995.574 191.177 986.184 207.972 995.133 225.871C1026.47 202.603 1041.68 170.373 1076.6 150.685C1076.58 147.092 1081.95 144.408 1076.58 141.723ZM1222.51 150.685C1160.73 145.303 1114.18 191.864 1070.32 236.61C1067.63 243.769 1051.53 251.823 1064.05 259.878C1123.14 265.247 1179.54 248.257 1222.51 208.854C1235.05 197.221 1243.97 182.007 1237.73 165.886C1235.05 159.634 1228.73 153.37 1222.51 150.685ZM1757.78 417.434C1786.43 487.263 1810.59 597.351 1757.78 664.495C1743.46 680.604 1718.4 695.454 1702.3 683.288C1643.21 635.858 1618.16 567.819 1581.46 506.938C1576.09 504.254 1576.09 511.426 1573.4 514.111C1559.98 575.873 1585.04 656.441 1542.98 704.766C1526.87 707.451 1511.8 699.163 1506.27 683.288C1485.68 619.737 1507.14 553.487 1512.51 489.935C1525.05 457.705 1530.42 420.119 1558.18 395.943C1602.94 413.842 1624.41 463.983 1650.35 500.687C1669.17 528.429 1684.37 559.764 1705.85 584.822C1724.64 576.768 1715.4 552.203 1714.81 537.379C1707.63 479.196 1691.52 425.488 1676.29 369.991C1675.42 355.672 1667.37 331.497 1682.56 322.547C1722.89 340.459 1739.87 382.52 1757.78 417.434V417.434ZM1487.45 395.943C1487.45 409.38 1476.71 426.163 1467.74 428.173C1381.81 441.597 1286.03 433.543 1205.48 460.39C1202.79 470.234 1214.43 472.024 1220.69 474.709C1289.6 485.448 1362.13 488.132 1429.27 505.149C1464.77 514.163 1477.62 556.185 1480.31 591.086C1481.95 618.608 1471.37 651.953 1444.5 670.76C1378.27 712.834 1277.12 711.031 1209.96 672.562C1184.3 658.166 1159.84 634.976 1158.05 606.326C1158.2 583.577 1167.9 565.666 1184.01 557.093C1248.47 531.127 1328.13 545.472 1383.64 578.571C1387.2 596.482 1367.82 595.509 1358.55 601.851C1296.77 637.661 1250.24 561.593 1192.95 589.31C1184.89 594.679 1179.07 609.659 1188.47 614.38C1259.18 645.715 1337.96 623.329 1407.78 603.641C1415.83 600.956 1425.69 592.902 1426.57 584.848C1423.89 556.198 1391.67 549.946 1371.07 541.892C1310.21 526.678 1243.08 526.678 1177.72 520.414C1165.19 517.729 1149.23 509.001 1145.5 498.936C1138.35 477.458 1138.35 447.913 1154.45 430.015C1237.69 356.606 1363.9 362.883 1469.53 382.571C1476.7 385.204 1484.75 387.889 1487.45 395.943V395.943ZM1096.28 429.963C1104.34 515.888 1108.81 595.574 1107.02 685.973C1105.23 697.594 1091.81 700.292 1082.86 704.766C1068.54 707.451 1050.03 704.403 1044.37 696.712C1023.78 663.574 1030.94 618.842 1029.15 578.558C1031.84 515.019 1030.94 446.084 1048.85 386.994C1052.28 378.408 1062.28 370.886 1070.33 376.242C1091.81 386.994 1095.39 408.485 1096.28 429.963V429.963ZM2090.81 417.434C2095.11 424.671 2099.61 435.851 2090.81 440.702C2050.52 458.6 1995.93 450.546 1949.37 455.915C1936.84 466.654 1926.98 484.553 1931.45 500.674C1935.95 503.359 1939.95 507.444 1944.9 506.926C1973.52 508.728 2016.5 493.502 2035.32 520.349C2039.91 528.339 2034.7 558.169 2021.9 558.844C1986.97 563.344 1929.54 554.46 1912.67 563.344C1891.19 577.663 1892.96 605.405 1884.91 627.804C1900.14 637.648 1916.08 627.57 1934.13 625.106C1967.28 619.737 2003.99 609.893 2037.09 617.052C2043.35 628.686 2052.31 641.227 2046.03 655.546C1989.6 700.305 1916.82 746.179 1839.27 713.728C1810.17 700.681 1797.2 656.441 1807.05 618.868C1813.3 592.007 1841.05 566.055 1824.06 537.404C1821.37 524.863 1828.54 514.137 1839.28 511.452C1868.82 511.452 1862.54 474.748 1877.76 457.731C1860.76 438.938 1817.81 439.833 1822.28 402.234C1842.88 391.495 1867.95 395.074 1891.19 391.495C1944 380.743 2003.08 374.478 2056.83 380.743C2067.53 382.896 2081.86 404.01 2090.81 417.434ZM812.519 213.342C895.123 280.863 1002.29 395.956 988.869 528.429C972.747 633.173 861.752 711.939 767.76 737.009C676.453 763.857 561.878 761.172 468.768 739.694C462.504 756.71 456.239 777.28 436.551 784.453C424.022 788.927 407.901 786.242 398.057 778.188C370.315 752.223 392.687 702.095 352.403 685.999C273.625 652.874 188.582 587.52 148.311 506.965C142.942 490.856 149.206 474.748 159.05 462.219C220.825 412.986 298.696 393.297 376.579 378.071C381.054 379.861 379.264 373.596 382.843 371.807C387.318 318.099 389.108 263.483 406.111 215.145C409.989 208.362 419.535 206.196 425.812 210.67C475.046 248.257 451.765 318.994 473.256 370.004C567.248 374.478 661.239 378.953 735.53 431.779C760.601 452.362 766.71 491.673 758.798 514.137C750.899 536.561 724.791 552.631 700.616 554.395C684.494 554.395 654.067 555.964 655.857 543.669C657.647 531.361 710.615 511.219 694.351 494.423C670.967 470.286 553.967 455.928 481.453 446.979C472.503 445.19 464.294 447.874 464.294 457.718C462.504 525.745 457.134 600.93 468.768 666.298C469.663 670.786 475.033 676.155 479.52 677.024C607.519 697.62 742.69 685.973 842.946 612.577C889.494 575.004 904.721 522.152 896.654 463.983C856.37 301.964 687.192 204.38 548.441 141.723C413.283 82.6457 263.781 52.2056 103.553 60.2728C78.041 62.1405 37.6142 70.9469 37.3159 79.9739C37.0176 89.0008 83.1122 86.1604 77.5871 103.242C72.0749 120.31 25.2281 110.18 11.3505 105.926C-2.52718 101.672 -1.17832 81.7508 2.40133 69.222C37.3159 7.45994 134.745 2.46659 178.751 0.300639C422.22 -5.97673 657.66 86.7442 812.519 213.342V213.342ZM373.894 453.244C312.119 454.139 246.778 460.403 189.49 481.881C177.856 486.355 163.525 498.884 172.474 514.111C195.742 545.433 229.022 571.152 260.201 589.297C291.381 607.415 332.715 630.476 370.315 635.858C379.264 577.663 379.264 520.375 378.369 460.403C374.776 458.613 378.356 455.033 373.894 453.244V453.244ZM2224.16 371.781C2221.48 449.651 2148.95 498.002 2148.95 575.873C2151.63 578.558 2153.45 582.137 2157 580.373C2215.21 516.809 2272.49 426.396 2357.53 399.549C2379.94 397.759 2400.19 417.227 2408.57 431.779C2438.11 490.856 2430.98 574.109 2389.78 627.817C2347.28 680.539 2273.39 733.442 2189.29 724.48C2154.38 810.418 2130.17 900.83 2116.75 994.822C2109.59 1013.62 2092.6 996.612 2081.86 993.032C2009.36 935.745 2068.89 784.089 2073.8 764.739C2078.72 745.44 2098.12 699.916 2112.31 661.798C2078.29 600.943 2099.77 527.522 2127.51 471.129C2148.99 433.53 2178.56 395.93 2213.46 367.293C2217.9 367.306 2221.48 368.201 2224.16 371.781V371.781ZM2368.31 468.457C2357.57 466.667 2353.08 480.999 2344.14 483.684C2302.98 530.232 2261.79 576.781 2241.19 632.278C2268.96 635.858 2292.21 617.96 2316.4 608.116C2357.57 582.15 2383.53 539.207 2380.85 489.961C2379.05 481.881 2371.89 475.617 2368.31 468.457Z" fill="white"/>
</svg>
