<svg width="3174" height="1000" viewBox="0 0 3174 1000" fill="none" xmlns="http://www.w3.org/2000/svg">
<g>
<path fill-rule="evenodd" clip-rule="evenodd" d="M1778.28 0H2052.25V767.146H2410.9V996.233H1778.29L1778.28 0Z" fill="white"/>
<path fill-rule="evenodd" clip-rule="evenodd" d="M2440.74 0V996.233H3123.16V767.146H2739.6V537.981H3172.98V308.843H2739.6V229.145H3123.16V0.00650104L2440.74 0Z" fill="white"/>
<path fill-rule="evenodd" clip-rule="evenodd" d="M338.666 536.791V767.152C378.527 777.105 460.706 790.299 513 789.894C725.041 789.894 916.85 595.602 916.85 383.587C916.85 171.546 744.947 3.33594 532.92 3.33594H-0.0688477V996.279H298.814V229.159L453.242 230.349C493.878 230.349 532.85 246.492 561.584 275.226C590.318 303.96 606.46 342.932 606.46 383.568C606.46 468.179 535.373 544.25 450.758 544.25C428.32 545.465 368.528 545.567 338.645 536.804L338.666 536.791Z" fill="white"/>
<path fill-rule="evenodd" clip-rule="evenodd" d="M1464.4 0.000254504C1445.61 122.142 1409.04 215.591 1336 380.407C1241.72 253.682 1174.5 113.328 1134.7 0.325311L861.682 -0.00390625C859.25 89.8989 954.042 393.093 1148.3 625.223C1068.18 686.965 975.386 730.928 886.594 759.666V996.255C1018.62 1016.19 1247.73 958.901 1437.01 747.21C1626.28 535.52 1715.98 231.644 1760.79 -0.00390625L1464.4 0.000254504Z" fill="white"/>
</g>
</svg>
