<svg width="1199" height="279" viewBox="0 0 1199 279" fill="none" xmlns="http://www.w3.org/2000/svg">
<path d="M603.583 251.441C586.153 248.765 572.311 241.529 558.942 228.105C551.305 220.436 549.094 217.444 545.193 209.504C538.606 196.092 537.088 189.551 537.083 174.541C537.08 164.505 537.529 160.476 539.361 154.098C545.628 132.283 560.251 114.665 580.043 105.081C598.775 96.0108 621.467 95.1801 640.5 102.868C659.506 110.545 675.306 126.308 683.018 145.287C685.831 152.209 688.771 165.785 687.931 167.973C687.413 169.324 684.595 169.541 667.6 169.541C656.749 169.541 632.212 169.84 613.075 170.206L578.28 170.87L578.821 178.032C580.626 201.9 591.565 221.354 607.625 229.261C623.341 236.998 639.06 237.455 653.043 230.581C661.322 226.512 667.698 220.542 674.443 210.541C679.008 203.774 680.673 202.041 682.61 202.041C686.658 202.041 686.275 206.324 681.384 215.766C675.832 226.484 662.999 239.818 653.791 244.437C641.41 250.647 618.879 253.79 603.583 251.441V251.441ZM647.962 158.934C649.945 158.173 649.988 152.926 648.098 142.327C644.422 121.712 633.421 109.981 616.638 108.78C601.059 107.665 588.704 117.135 582.603 134.867C579.682 143.357 577.994 156.174 579.55 158.049C580.602 159.317 585.726 159.541 613.584 159.541C631.622 159.541 647.092 159.268 647.962 158.934V158.934ZM100.043 249.193C98.2763 247.842 98.2181 247.503 99.5435 246.284C100.368 245.525 103.603 244.133 106.731 243.191C116.448 240.265 119.921 233.72 120.988 216.32C121.301 211.217 121.216 168.791 120.8 122.041L120.043 37.0413L108.043 37.1982C98.2991 37.3256 94.3587 37.8533 87.0807 40.0055C61.1751 47.666 45.1613 63.3642 38.7083 87.4245C36.5281 95.5532 36.2473 96.0254 34.0866 95.1962C32.7383 94.6789 32.5435 90.383 32.5435 61.1797C32.5435 31.6235 32.7265 27.685 34.1252 27.1483C34.9952 26.8145 84.8755 26.5413 144.97 26.5413H254.233L254.888 40.1994C255.859 60.4424 255.682 89.0458 254.568 91.9762C253.07 95.916 250.774 95.1456 249.545 90.2913C245.536 74.4552 241.755 67.559 231.591 57.5413C222.745 48.8227 214.214 43.92 201.043 39.986C193.54 37.7446 189.965 37.2764 179.543 37.1695L167.043 37.0413V130.541C167.043 216.686 167.181 224.485 168.789 229.681C171.112 237.185 174.817 240.983 181.788 243.01C187.673 244.721 189.888 246.379 188.736 248.211C188.26 248.968 174.577 249.534 145.043 250.018C107.262 250.637 101.801 250.537 100.043 249.193V249.193ZM198.992 248.457C197.965 246.796 200.438 244.973 206.281 243.083C212.144 241.186 214.922 238.299 216.79 232.161C218.674 225.969 218.571 144.535 216.673 139.161C214.461 132.899 209.108 127.761 202.92 125.962C197.624 124.423 195.991 122.351 199.125 121.148C199.995 120.814 203.748 120.541 207.465 120.541C215.08 120.541 227.222 117.745 233.713 114.497C236.095 113.305 241.244 109.902 245.155 106.935C251.348 102.239 253.967 100.834 254.747 101.791C254.86 101.929 255.224 130.616 255.557 165.541C255.998 211.873 256.497 230.055 257.399 232.79C259.226 238.325 262.381 241.325 268.543 243.39C272.64 244.762 274.043 245.718 274.043 247.137C274.043 248.971 272.664 249.051 236.86 249.303C210.473 249.489 199.478 249.244 198.992 248.457V248.457ZM279.654 248.174C278.142 246.353 279.519 245.271 286.826 242.537C291.643 240.734 292.948 239.701 294.814 236.212C297.012 232.099 297.048 231.407 297.342 186.562C297.604 146.573 297.444 140.57 296.02 136.84C293.783 130.984 289.719 127.873 282.433 126.44C273.117 124.607 273.192 120.607 282.543 120.539C295.386 120.446 309.806 114.81 323.322 104.602C328.219 100.903 332.201 98.5798 333.072 98.9139C334.238 99.3612 334.543 101.655 334.543 109.951C334.543 116.123 334.971 120.687 335.584 121.066C336.156 121.42 337.587 120.434 338.765 118.875C343.859 112.133 351.076 106.19 358.388 102.715C365.318 99.4218 367.002 99.0415 376.164 98.7006C395.518 97.9805 410.661 105.4 420.231 120.291C422.087 123.179 423.777 125.541 423.986 125.541C424.196 125.541 426.435 122.644 428.962 119.103C442.171 100.592 464.227 93.485 486.043 100.71C496.96 104.325 507.735 113.117 512.36 122.181C516.031 129.377 516.543 136.386 516.543 179.393C516.543 234.881 517.172 238.026 529.074 242.069C533.663 243.628 535.043 244.553 535.043 246.069C535.043 247.993 534.111 248.048 497.222 248.303L459.401 248.565L459.722 246.394C459.965 244.751 461.384 243.774 465.543 242.386C473.069 239.874 476.017 236.386 477.419 228.333C478.925 219.684 478.952 140.546 477.451 133.548C476.057 127.044 471.244 120.663 465.567 117.791C459.595 114.77 450.286 114.712 444.022 117.657C438.128 120.427 431.227 128.212 428.347 135.34C426.069 140.977 426.043 141.512 426.044 183.041C426.044 220.725 426.23 225.643 427.852 230.895C430.058 238.04 432.965 241.115 438.933 242.618C444.27 243.962 446.494 245.99 444.652 247.834C442.734 249.753 372.706 250.145 370.141 248.25C367.51 246.307 368.686 244.981 374.805 242.989C384.122 239.957 386.029 236.967 387.642 222.865C389.275 208.591 387.917 135.851 385.911 130.167C384.102 125.039 379.284 119.872 374.043 117.441C369.566 115.364 360.294 114.933 355.859 116.597C344.179 120.978 336.558 133.134 335.206 149.541C334.281 160.762 336.09 228.387 337.429 232.656C339.103 237.992 342.551 241.111 348.78 242.922C354.756 244.659 356.653 246.877 353.572 248.526C352.391 249.158 338.303 249.541 316.232 249.541C287.475 249.541 280.574 249.283 279.654 248.174V248.174ZM1050.04 248.074C1029.22 243.532 1011.34 229.394 1002.05 210.13C996.082 197.752 994.489 191.211 993.841 176.416C993.407 166.534 993.664 162.081 995.021 155.916C1000.37 131.611 1018.27 110.06 1040.87 100.689C1051.09 96.453 1058.77 95.2073 1071.29 95.7509C1090.1 96.5675 1106.77 104.274 1119.1 117.844C1126.22 125.684 1128.77 130.622 1128.77 136.554C1128.77 142.019 1126.77 146.331 1122.6 149.837C1116.56 154.924 1108.05 154.163 1102.69 148.055C1098.13 142.866 1097.27 138.48 1099.2 130.448C1101.27 121.887 1100.54 119.151 1094.66 113.476C1088.63 107.648 1083.75 106.227 1071.4 106.698C1060.01 107.133 1054.86 109.395 1047.46 117.224C1037.39 127.867 1032.54 143.225 1032.55 164.379C1032.57 195.715 1047.05 219.384 1071.28 227.686C1076.57 229.5 1080.23 230.008 1088.1 230.023C1097.72 230.041 1098.47 229.881 1105.77 226.275C1114.41 222.004 1120.56 215.895 1126.34 205.852C1130.23 199.092 1132.11 197.681 1134.31 199.88C1135.53 201.097 1135.39 202.108 1133.35 207.175C1126.85 223.25 1112.71 237.56 1097.04 243.922C1083.87 249.264 1063.68 251.048 1050.04 248.074V248.074ZM723.293 247.852C721.255 247.319 720.997 245.224 722.793 243.784C723.481 243.234 726.614 242.046 729.755 241.145C733.971 239.937 736.096 238.66 737.867 236.274C743.184 229.112 743.01 232.049 743.345 144.041C743.671 58.8106 743.243 46.7911 739.632 39.7156C737 34.5604 734.526 32.6195 728.588 31.053C722.715 29.5038 720.438 27.9795 721.165 26.0842C721.562 25.0514 729.997 24.6171 760.921 24.0373C782.511 23.6325 801.633 23.6218 803.416 24.0134C805.999 24.5807 806.596 25.1638 806.351 26.8816C806.111 28.5609 804.827 29.3721 800.543 30.55C797.518 31.3818 793.989 32.6586 792.699 33.3874C789.358 35.2761 786.833 41.7302 785.605 51.5191C784.432 60.879 784.324 137.127 785.406 192.041C786.076 226.04 786.076 226.042 788.715 231.705C791.567 237.826 793.127 239.02 801.543 241.524C805.758 242.778 807.043 243.614 807.043 245.101C807.043 246.858 806.054 247.1 796.543 247.669C784.467 248.39 725.914 248.537 723.293 247.852V247.852ZM815.871 245.953C815.138 244.041 816.645 242.928 821.953 241.46C827.723 239.864 830.161 237.908 832.209 233.232C833.884 229.406 834.068 225.125 834.328 184.041L834.612 139.041L832.328 134.549C829.699 129.38 824.868 125.777 819.393 124.901C817.299 124.566 814.788 123.704 813.814 122.984C810.557 120.578 813.893 119.21 824.78 118.488C841.915 117.352 851.085 113.644 861.992 103.441C870.893 95.1141 871.543 95.5273 871.543 109.51C871.543 115.577 871.754 120.541 872.012 120.541C872.27 120.541 875.982 117.014 880.262 112.702C885.198 107.729 890.055 103.9 893.543 102.232C910.122 94.3047 929.46 94.659 945.69 103.188C955.784 108.492 960.9 113.459 965.174 122.108L968.849 129.545L969.554 178.293C970.031 211.344 970.641 228.248 971.447 230.79C973.155 236.171 976.289 239.117 982.365 241.054C987.833 242.796 989.901 245.068 987.439 246.627C986.672 247.113 969.786 247.518 949.916 247.526C919.759 247.539 913.592 247.304 912.599 246.108C911.117 244.323 914.003 242.242 920.24 240.599C922.576 239.983 925.321 238.368 926.433 236.955C930.901 231.275 931.043 229.515 931.043 180.041C931.043 126.586 931.109 127.083 923.081 119.683C915.758 112.933 905.891 111.799 895.942 116.566C889.572 119.618 878.603 130.573 874.934 137.547L872.043 143.041L872.074 182.541C872.114 234.06 872.837 237.21 885.56 241.285C889.791 242.64 891.043 243.498 891.043 245.041C891.043 247.001 890.289 247.047 853.767 247.304C820.241 247.539 816.428 247.403 815.871 245.953H815.871ZM1143.54 246.418C1142.17 245.87 1139.99 244.436 1138.7 243.231C1133.16 238.06 1132.12 231.574 1135.81 225.145C1143.02 212.563 1161.67 216.589 1163.3 231.083C1164.49 241.611 1153.29 250.304 1143.54 246.418Z" fill="white"/>
</svg>
