<svg width="131" height="43" viewBox="0 0 131 43" fill="none" xmlns="http://www.w3.org/2000/svg">
<g>
<path d="M11.5939 10.3672C8.60095 10.3672 5.90499 11.5366 3.96299 13.646L3.89445 11.9493C3.82591 11.2614 3.34612 10.8028 2.7064 10.8028H1.40411C0.695854 10.8028 0.216064 11.3073 0.216064 11.9951V41.7802C0.216064 42.491 0.695854 42.9725 1.40411 42.9725H2.75209C3.46035 42.9725 3.94014 42.491 3.94014 41.7802V31.8977L3.98584 30.9576C5.95069 32.9983 8.6238 34.1218 11.5939 34.1218C14.7468 34.1218 17.6256 32.8837 19.7275 30.6366C21.7609 28.4354 22.8804 25.5004 22.8804 22.3362C22.8804 15.5262 18.0368 10.3672 11.5939 10.3672ZM11.4111 30.6595C7.07019 30.6595 3.66598 26.9908 3.66598 22.3133C3.66598 17.544 7.07019 13.8295 11.4111 13.8295C13.5816 13.8295 15.5922 14.6779 17.0087 16.237C18.4481 17.7962 19.2477 19.9516 19.2477 22.3133C19.2477 27.0826 15.8892 30.6595 11.4111 30.6595Z" fill="white"/>
<path d="M29.5974 0.0507812H28.2494C27.5412 0.0507812 27.0614 0.532295 27.0614 1.2431V32.6332C27.0614 33.344 27.5412 33.8255 28.2494 33.8255H29.5974C30.3057 33.8255 30.7855 33.344 30.7855 32.6332V1.2431C30.7855 0.532295 30.3057 0.0507812 29.5974 0.0507812Z" fill="white"/>
<path d="M56.4885 10.8024H55.1862C54.5236 10.8024 54.0667 11.238 53.9982 11.9717L53.9296 13.6226C51.9876 11.5131 49.2916 10.3438 46.2987 10.3438C39.8558 10.3438 35.0122 15.5027 35.0122 22.3586C35.0122 25.5228 36.1317 28.4578 38.1651 30.659C40.267 32.906 43.1458 34.1442 46.2987 34.1442C49.2688 34.1442 51.9419 33.0207 53.9068 30.98L53.9982 32.6997C54.0667 33.3875 54.5465 33.8461 55.1862 33.8461H56.4885C57.1967 33.8461 57.6765 33.3647 57.6765 32.6539V12.0175C57.6994 11.3067 57.1967 10.8024 56.4885 10.8024ZM46.4815 30.659C42.0263 30.659 38.6449 27.0591 38.6449 22.3127C38.6449 19.951 39.4445 17.7958 40.8839 16.2366C42.3233 14.6774 44.311 13.8289 46.4815 13.8289C50.8224 13.8289 54.2266 17.5664 54.2266 22.3127C54.2266 26.9903 50.8224 30.659 46.4815 30.659Z" fill="white"/>
<path d="M70.9507 20.5038C68.369 19.5866 65.9244 18.7153 65.9244 16.6516C65.9244 15.2988 66.9068 13.7167 69.6484 13.7167C71.7961 13.7167 73.1897 14.6109 74.7205 16.0326C75.1089 16.4224 75.4744 16.4911 75.7258 16.4682C75.9085 16.4453 76.2284 16.3765 76.4797 16.0326L77.0509 15.3676C77.5992 14.6109 77.3022 14.0377 77.0737 13.7855C75.0175 11.355 71.9331 10.2773 69.7855 10.2773C65.5359 10.2773 62.3374 13.0059 62.3374 16.6287C62.3374 20.8936 65.9472 22.2005 69.4428 23.4846C72.1616 24.4705 74.7205 25.3877 74.7205 27.7265C74.7205 29.5837 73.0526 30.799 70.4709 30.799C67.2723 30.799 64.9419 28.5061 64.485 28.0475C64.2337 27.7952 63.9138 27.5201 63.5254 27.543C63.2512 27.566 62.9999 27.7035 62.7943 27.9787L61.9718 28.8958C61.789 29.1022 61.4463 29.6984 62.0632 30.4321C62.84 31.3263 65.7187 34.2842 70.4938 34.2842C74.2864 34.2842 78.3989 31.7849 78.3989 27.7494C78.376 23.1635 74.4235 21.7649 70.9507 20.5038Z" fill="white"/>
<path d="M92.9525 10.804H88.2916V1.21966C88.2916 0.508857 87.8119 0.0273438 87.1036 0.0273438H85.7556C85.0473 0.0273438 84.5676 0.508857 84.5676 1.21966V10.804H81.506C80.7978 10.804 80.318 11.2855 80.318 11.9963V12.9823C80.318 13.6931 80.7978 14.1746 81.506 14.1746H84.5676V32.6097C84.5676 33.3205 85.0473 33.802 85.7556 33.802H87.1036C87.8119 33.802 88.2916 33.3205 88.2916 32.6097V14.1976H92.9525C93.6607 14.1976 94.1405 13.716 94.1405 13.0052V12.0193C94.1405 11.3085 93.6379 10.804 92.9525 10.804Z" fill="white"/>
<path d="M99.3725 0.0273438C97.9788 0.0273438 96.9735 1.0133 96.9735 2.38905C96.9735 3.78774 97.9788 4.79662 99.3725 4.79662C100.698 4.79662 101.68 3.76481 101.68 2.38905C101.68 1.03623 100.675 0.0273438 99.3725 0.0273438Z" fill="white"/>
<path d="M99.9893 10.8047H98.6414C97.9331 10.8047 97.4533 11.2862 97.4533 11.997V32.6333C97.4533 33.3441 97.9331 33.8257 98.6414 33.8257H99.9893C100.698 33.8257 101.177 33.3441 101.177 32.6333V11.997C101.177 11.3092 100.698 10.8047 99.9893 10.8047Z" fill="white"/>
<path d="M127.84 29.1923C129.325 27.1516 130.216 24.6294 130.216 21.8779C130.216 15.045 124.687 9.49609 117.879 9.49609C111.07 9.49609 105.541 15.045 105.541 21.8779C105.541 28.7108 111.07 34.2596 117.879 34.2596C120.62 34.2596 123.156 33.3654 125.213 31.8291L127.063 33.6864C127.543 34.1679 128.32 34.1679 128.8 33.6864L129.691 32.7922C130.17 32.3107 130.17 31.5311 129.691 31.0495L127.84 29.1923ZM117.879 30.3158C113.241 30.3158 109.494 26.5554 109.494 21.9008C109.494 17.2462 113.241 13.4858 117.879 13.4858C122.517 13.4858 126.264 17.2462 126.264 21.9008C126.264 23.5288 125.807 25.065 124.984 26.3491L122.951 24.3084C122.471 23.8268 121.694 23.8268 121.214 24.3084L120.323 25.2026C119.843 25.6841 119.843 26.4637 120.323 26.9452L122.357 28.9859C121.077 29.8343 119.524 30.3158 117.879 30.3158Z" fill="white"/>
</g>
</svg>
