<?xml version="1.0" encoding="UTF-8"?><svg id="a" xmlns="http://www.w3.org/2000/svg" viewBox="0 0 3733 1296"><defs><style>.b{fill:#fff;fill-rule:evenodd;stroke-width:0px;}</style></defs><path class="b" d="M1551.08,862.75c-89.08,0-140.07-66.22-140.07-148.27,0-98.46,73.26-176.4,168.2-176.4,20.51,0,41.02,4.1,49.23,5.86,1.67.39,3.17.74,4.53,1.07,4.83,1.15,7.83,1.86,10.12,1.86,4.69,0,7.03-2.93,7.03-8.79v-28.13c.59-23.44-4.69-34.58-28.71-41.61-15.83-4.69-20.52-10.55-20.52-19.93,0-13.48,11.73-16.41,22.27-16.41l28.14.59h36.33c9.96,0,15.24,5.27,15.24,21.1v329.36c-.59,21.68,3.51,31.65,20.51,37.51,12.89,4.1,17.58,9.96,17.58,18.17,0,12.31-9.96,15.24-19.34,15.24h-51.57c-11.14,0-14.07-2.93-17-14.07-2.93-11.72-10.55-14.65-18.75-6.45-19.34,19.34-53.92,29.3-83.22,29.3ZM1466.1,702.76c0,54.5,33.99,117.8,99.05,117.8,46.88,0,84.97-29.89,84.97-66.22v-120.73c0-45.13-12.3-53.33-70.91-53.33-68.57,0-113.11,51.57-113.11,122.48ZM2061.09,838.71c0,12.31,9.97,15.24,19.34,15.24h91.43c9.37,0,19.92-2.93,19.92-15.82,0-8.2-4.69-13.48-18.75-18.17-17.58-5.86-21.69-15.82-21.1-38.09v-118.38c0-53.92,32.23-84.98,86.15-84.98,44.54,0,70.33,29.3,69.74,80.29l-.59,123.07c0,22.27-4.1,32.23-22.85,38.09-14.07,4.69-18.75,9.96-18.75,18.17,0,12.89,11.13,15.82,20.51,15.82h93.18c9.38,0,19.34-2.93,19.34-15.24,0-8.2-4.69-14.07-17.58-18.17-17-5.86-21.1-15.82-20.51-37.51v-119.56c0-53.92,32.23-84.98,86.15-84.98,44.54,0,70.32,29.3,69.74,80.29l-.59,123.07c0,22.27-4.1,32.23-22.86,38.09-14.06,4.69-18.75,9.96-18.75,18.17,0,12.89,11.14,15.82,20.51,15.82h93.19c9.37,0,19.33-2.93,19.33-15.24,0-8.2-4.68-14.07-17.58-18.17-16.99-5.86-21.09-15.82-20.51-37.51v-129.52c0-73.84-41.02-117.21-117.21-117.21-36.33,0-75.01,17-95.53,43.95-4.68,5.86-7.03,6.45-9.37,6.45-2.51,0-4.58-2.99-6.96-6.42h0c-.41-.59-.82-1.19-1.25-1.78-18.17-27.55-50.4-42.2-90.25-42.2-29.89,0-60.36,11.14-83.81,31.06-6.44,5.28-11.13,4.69-12.89-2.93-3.52-13.48-8.79-19.34-18.17-19.34h-33.4l-22.86-.59c-8.2,0-17.58,2.93-18.17,15.24,0,8.79,4.11,14.07,17,18.17,19.34,6.45,23.44,16.41,22.86,38.09v167.03c.58,21.68-3.52,31.65-20.52,37.51-12.89,4.1-17.58,9.96-17.58,18.17ZM1741.85,702.74c0,89.67,73.84,159.99,162.92,159.99s154.72-70.91,154.72-161.17-70.33-165.85-158.24-163.51c-89.08,1.76-159.4,74.43-159.4,164.68ZM1914.15,821.7c-63.88,0-117.22-56.85-117.22-140.65,0-56.85,41.03-101.97,93.77-101.97,62.12,0,113.7,57.43,113.7,135.96,0,59.78-39.85,106.66-90.25,106.66ZM1141.87,815.27c24.61,25.79,77.95,47.47,125.42,47.47,69.15,0,117.8-39.27,117.8-92.6s-33.4-84.39-114.28-97.87c-64.47-11.13-83.8-25.79-83.8-50.99s25.79-46.88,58.6-46.88c37.51,0,63.88,16.99,89.67,50.99,5.86,7.03,10.55,9.96,14.65,9.96s8.79-3.52,15.82-10.55c11.72-11.72,15.82-26.37,3.52-41.61-21.68-28.13-67.98-46.88-113.69-46.88-67.98,0-117.8,45.71-117.8,95.53s29.3,77.94,116.62,92.01c63.29,9.96,81.46,29.89,81.46,56.26s-23.44,45.13-59.19,45.13c-39.27,0-73.26-20.51-100.22-56.85-.45-.61-.88-1.21-1.3-1.78h-.01c-5.57-7.65-8.52-11.7-14.51-11.7-6.45,0-12.89,5.86-19.34,11.72-13.48,13.48-15.82,31.06.59,48.64ZM1008.23,503.48c-10.55,0-16.99-7.03-16.99-17,0-25.79,18.75-46.88,43.95-46.88s43.95,21.1,43.95,46.88c0,9.96-6.45,17-17,17h-53.92ZM984.2,559.74c.59-12.31,9.96-15.24,18.17-15.24l22.86.59h33.99c11.14,0,17.58,7.62,17.58,21.68v214.5c-.59,22.86,3.52,32.82,22.27,38.68,14.07,4.1,18.75,9.96,18.75,18.17,0,12.89-10.55,15.82-20.51,15.82h-92.01c-9.38,0-19.34-2.93-19.34-15.24,0-8.21,4.69-14.07,17.58-18.17,17-5.86,21.1-15.82,20.51-37.51v-167.03c.59-21.68-3.52-31.65-22.86-38.09-12.89-4.1-17-9.38-17-18.17ZM582.33,841.68c7.03,14.07,10.55,16.41,29.89,16.41,24.03,0,25.79-2.93,31.65-16.41,18.17-41.02,50.4-133.62,61.54-167.03,2.34-7.03,7.03-5.86,8.79,0,16.41,48.64,51.57,126,72.67,166.44.2.38.4.74.6,1.1,6.52,11.99,8.32,15.31,32.22,15.31,19.34,0,21.68-2.35,28.13-15.82,30.47-64.47,61.54-167.61,75.01-229.15,4.1-19.34,10.55-26.37,25.2-32.82,11.13-5.28,16.41-11.14,16.41-18.75,0-9.38-7.03-15.82-17.58-15.82h-89.67c-11.14,0-16.99,5.86-16.99,14.06,0,9.96,5.86,14.65,24.61,20.51,17.58,5.27,18.75,13.48,15.82,32.23-6.45,43.95-38.68,141.24-53.33,174.64-2.93,7.03-7.03,5.86-9.96-.59-19.93-43.37-50.99-113.11-70.33-177.57-5.27-16.99-1.17-22.27,15.82-28.72,14.65-5.28,19.93-9.38,19.93-18.75,0-9.96-7.62-15.82-19.34-15.82h-93.77c-12.31,0-18.17,4.69-18.17,14.65,0,10.55,5.86,14.65,20.51,18.75,18.17,5.27,18.75,11.72,16.41,23.44-9.38,45.13-43.95,141.83-62.71,185.78-2.35,5.28-6.45,5.28-9.38-.59-26.37-55.09-52.75-132.45-62.12-173.47-5.86-24.03-1.17-26.96,23.44-33.99,12.31-3.52,18.17-9.96,18.17-18.17,0-11.14-5.28-16.41-18.75-16.41h-97.87c-15.24,0-21.68,6.45-21.68,17,0,8.21,5.27,13.48,17,19.34,12.89,6.45,19.34,12.31,25.79,35.75,19.93,70.91,49.81,158.24,82.05,224.46ZM3190.24,432c-50.72,0-99.87,49.86-193.24,49.86s-142.52-49.86-193.24-49.86c-54.64,0-95.95,50.75-82.8,102.71l63.18,272.85c13.2,65.28,110.65,77.98,139.59,16.71,13.28-25.75,37.09-60.3,73.27-60.3s59.99,34.55,73.27,60.3c28.94,61.27,126.39,48.57,139.59-16.71l63.18-272.85c13.15-51.96-28.16-102.71-82.8-102.71Z"/></svg>